<svg xmlns="http://www.w3.org/2000/svg" viewBox="0 0 200 200">
  <!-- Monoline burger icon — no background, white strokes only -->
  <g fill="none" stroke="#ffffff" stroke-width="11" stroke-linecap="round" stroke-linejoin="round">

    <!-- Layer 1 — Top bun dome -->
    <path d="
      M 62 92
      C 60 92 58 54 100 51
      C 142 54 140 92 138 92
      C 138 92 122 92 115 98
      C 108 104 100 98 100 98
      C 100 98 92 104 85 98
      C 78 92 62 92 62 92
    "/>

    <!-- Right connector: top bun → patty -->
    <path d="M 138 92 L 138 113"/>

    <!-- Layer 2 — Patty -->
    <path d="M 138 113 L 62 113"/>

    <!-- Left connector: patty → lettuce -->
    <path d="M 62 113 L 62 131"/>

    <!-- Layer 3 — Lettuce/cheese wavy layer -->
    <path d="
      M 62 131
      C 72 131 76 123 85 128
      C 92 132 98 123 107 128
      C 114 132 120 123 130 128
      C 136 131 138 131 138 131
    "/>

    <!-- Right connector: lettuce → bottom bun -->
    <path d="M 138 131 L 138 148"/>

    <!-- Layer 4 — Bottom bun -->
    <path d="
      M 138 148
      L 62 148
      Q 52 148 52 157
      Q 52 165 62 165
      L 138 165
      Q 148 165 148 157
      Q 148 148 138 148
    "/>

  </g>
</svg>
